# xmcd
# 
# Track frame offsets:
#     150
#     18930
#     43433
#     63283
#     87518
#     107018
#     127758
#     150885
#     168970
#     186045
#     208130
# 
# Disc length: 3031
# 
# Revision: 2
# Processed by: cddbd v1.5.2PL0 Copyright (c) Steve Scherf et al.
# Submitted via: BonkEnc v1.0.6
# 
DISCID=870bd50b
DTITLE=Rodney Crowell - Fate's Right Hand
DYEAR=2003
DGENRE=Country
TTITLE0=Still Learing How To Fly
TTITLE1=Fate's Right Hand
TTITLE2=Earthbound
TTITLE3=Time To Go Inward
TTITLE4=The Man In Me
TTITLE5=Ridin' Out The Storm
TTITLE6=Preachin' To The Choir
TTITLE7=It's A Different World Now
TTITLE8=Come On Funny Feelin'
TTITLE9=Adam's Song
TTITLE10=This Too Will Pass
EXTD=
EXTT0=
EXTT1=
EXTT2=
EXTT3=
EXTT4=
EXTT5=
EXTT6=
EXTT7=
EXTT8=
EXTT9=
EXTT10=
PLAYORDER=
